<?xml version="1.0" encoding="utf-8"?>
<!-- Generator: Adobe Illustrator 25.0.1, SVG Export Plug-In . SVG Version: 6.00 Build 0)  -->
<svg version="1.1" id="Слой_2" xmlns="http://www.w3.org/2000/svg" xmlns:xlink="http://www.w3.org/1999/xlink" x="0px" y="0px"
	 viewBox="0 0 660 572" style="enable-background:new 0 0 660 572;" xml:space="preserve">
<style type="text/css">
	.st0{fill:#FFFFFF;}
	.st1{fill:#B1B0D8;}
	.st2{fill:#FBB040;}
	.st3{fill:none;stroke:#FBB040;stroke-width:3.3269;stroke-miterlimit:10;}
	.st4{fill:none;stroke:#FBB040;stroke-width:5;stroke-miterlimit:10;}
	.st5{fill:#FDB137;}
	.st6{fill:none;stroke:#FDB137;stroke-width:2.6266;stroke-miterlimit:10;}
	.st7{fill:#04332F;}
	.st8{fill:#7176B8;}
	.st9{fill:none;stroke:#FDB137;stroke-width:7.0273;stroke-miterlimit:10;}
	.st10{fill:#B1B1D5;}
	.st11{fill:#F6813C;}
	.st12{fill:#FFAD74;}
	.st13{fill:#0B2A2B;}
	.st14{fill:#FFAD6B;}
	.st15{fill:#EF8152;}
	.st16{fill:#023129;}
	.st17{fill:#884636;}
	.st18{fill:#FC6A3B;}
	.st19{fill:none;stroke:#874535;stroke-width:2;stroke-miterlimit:10;}
	.st20{fill:#3F1F12;}
	.st21{fill:#894535;}
	.st22{fill:#FFB130;}
	.st23{fill:#F9B06B;}
	.st24{fill:#B1DFDD;}
	.st25{fill:#FDB038;}
	.st26{fill:#465295;}
	.st27{fill:#656DB2;}
	.st28{fill:#4C5993;}
	.st29{fill:#6F69BA;}
	.st30{fill:#F8B433;}
	.st31{fill:none;stroke:#B1B0D8;stroke-miterlimit:10;}
	.st32{fill:#F9B071;}
	.st33{fill:#F38343;}
	.st34{fill:#F9AE6C;}
	.st35{fill:#FFF3DC;}
	.st36{fill:none;stroke:#F18441;stroke-miterlimit:10;}
	.st37{fill:#0A2A2F;}
	.st38{fill:#A8873D;}
	.st39{fill:#AFB1D8;}
	.st40{fill:#864737;}
	.st41{fill:#FDB066;}
	.st42{fill:#04312E;}
	.st43{fill:#2E3233;}
	.st44{fill:#684E49;}
	.st45{fill:#58908F;}
	.st46{fill:#AFDFDB;}
	.st47{fill:#71C4BD;}
	.st48{fill:none;stroke:#568987;stroke-width:1.0095;stroke-miterlimit:10;}
	.st49{fill:#568987;}
	.st50{fill:none;stroke:#71C4BD;stroke-width:0.75;stroke-miterlimit:10;}
	.st51{fill:#FBAD75;}
	.st52{fill:none;stroke:#894535;stroke-width:2.07;stroke-miterlimit:10;}
	.st53{fill:#884636;stroke:#894535;stroke-miterlimit:10;}
	.st54{fill:#3F1F12;stroke:#894535;stroke-miterlimit:10;}
	.st55{fill:#894535;stroke:#894535;stroke-miterlimit:10;}
	.st56{fill:#FFB130;stroke:#894535;stroke-miterlimit:10;}
	.st57{fill:#FFAD6F;}
	.st58{fill:#F48148;}
	.st59{fill:#FBB06B;}
	.st60{fill:none;stroke:#F48148;stroke-miterlimit:10;}
	.st61{fill:#FCEFDB;}
	.st62{fill:#844734;}
</style>
<rect class="st0" width="660" height="572"/>
<g id="fon">
	<path class="st1" d="M614.94,339.49c0,0-5.28-38.4-56.16-40.32c-41.08-1.55-14.82-42.18-3.17-57.79c1.76-2.01,3.34-4.02,4.72-6.02
		c0,0,0.01-0.01,0.01-0.01l0,0c5.93-8.59,8.29-17.02,6.31-24.75c-7.07-27.46-66.5-36.25-135.89-21.27
		c-10.91,1.44-22.41,3.65-34.16,6.68c-13.28,3.42-25.76,7.58-37.07,12.21c-29.01-12.88-70.07-20.92-115.61-20.92
		c-87.88,0-159.12,29.93-159.12,66.84c-0.63,23.51-18.4,49.59-22.95,55.89c-0.24,0.32-0.47,0.65-0.71,0.97
		c-0.22,0.29-0.35,0.46-0.35,0.46l-0.01,0.04c-6.33,8.88-10.93,19.65-12.99,31.63c-1.13,6.62-1.4,13.14-0.92,19.43l0,0.02
		c0,0.01,0,0.01,0.01,0.02c0.63,8.16,2.55,15.89,5.56,22.89c0.35,9.37-2.9,12.64-2.91,12.65c-9.04,7.91-14.18,16.97-14.18,26.61
		c-5.05,30.54,49.45,55.58,49.45,55.58h57.42c3.46,0.15,6.95,0.22,10.49,0.22s7.03-0.08,10.49-0.22H569.3
		c6.18,0.14,14.58-2.31,22.88-7.1c13.88-8.02,22.23-19.55,18.64-25.77C584.63,397.96,614.94,339.49,614.94,339.49z M220.73,235.35
		l-2.75,3.92h-18.97l-30.39-0.05c-0.98,0.03-1.97,0.05-2.97,0.05c-1.13,0-2.25-0.02-3.35-0.06h-0.01c0,0-31.46,5.43-30.01-11.94
		c0-5.61,10.71-10.32,25.17-11.63c-0.01-0.12-0.02-0.24-0.02-0.37c0-6.63,13.16-12,29.39-12s29.39,5.37,29.39,12
		c0,0.73-0.17,1.44-0.47,2.14c7.65,2.17,12.66,5.78,12.66,9.86C228.4,230.38,225.49,233.21,220.73,235.35z M327.69,280.38h-59.55
		l10.8-26.9l28.8,3.04c2.38-1.86,5.85-3.04,9.73-3.04c7.18,0,12.99,4.01,12.99,8.97c0,0.07-0.01,0.14-0.02,0.21
		c5.85,0.87,10.24,4.46,10.24,8.76C340.68,276.37,334.87,280.38,327.69,280.38z M420.06,233.89c0,0-16.8-6.72-5.28-22.56l14.88,4.32
		L420.06,233.89z"/>
	<g>
		<path class="st2" d="M196.99,87.99c-15.89,0-28.77,12.88-28.77,28.77c0,15.89,12.88,28.77,28.77,28.77
			c15.89,0,28.77-12.88,28.77-28.77C225.76,100.87,212.88,87.99,196.99,87.99z M196.59,132.86c-8.89,0-16.1-7.21-16.1-16.1
			s7.21-16.1,16.1-16.1s16.1,7.21,16.1,16.1S205.49,132.86,196.59,132.86z"/>
		<g>
			<circle class="st3" cx="196.91" cy="116.37" r="32.61"/>
			<polygon class="st2" points="149.72,102.41 152.76,93.79 170.81,96.83 164.93,110.02 			"/>
			<polygon class="st2" points="180.86,87.99 176.07,73.03 183.9,69.51 193.76,83.92 			"/>
			<polygon class="st2" points="204.32,84.62 212.69,70.63 220.63,73.5 217.24,90.88 			"/>
			<polygon class="st2" points="222.86,96.63 238.99,92.35 242.83,99.85 228.9,110.02 			"/>
			<polygon class="st2" points="225.76,131.58 242.19,134.03 245.06,126.36 229.45,118.38 			"/>
			<polygon class="st2" points="208.92,146.69 217.43,160.06 225.76,156.07 220.63,138.74 			"/>
			<polygon class="st2" points="188.37,163.89 196.91,148.98 183.26,145.99 180.49,161.81 			"/>
			<polygon class="st2" points="164.9,122.56 150.68,132.86 154.36,141.21 170.81,135.92 			"/>
		</g>
	</g>
	<circle class="st0" cx="280.82" cy="207.84" r="49.07"/>
	<g>
		<path class="st2" d="M281.12,165.9c-23.88,0-43.23,19.36-43.23,43.23c0,23.88,19.36,43.23,43.23,43.23
			c23.88,0,43.23-19.36,43.23-43.23C324.35,185.26,304.99,165.9,281.12,165.9z M280.52,233.33c-13.36,0-24.2-10.83-24.2-24.2
			s10.83-24.2,24.2-24.2s24.2,10.83,24.2,24.2S293.88,233.33,280.52,233.33z"/>
		<g>
			<circle class="st4" cx="281" cy="208.56" r="49"/>
			<polygon class="st2" points="210.08,187.57 214.64,174.61 241.78,179.18 232.93,199.01 			"/>
			<polygon class="st2" points="256.88,165.9 249.68,143.41 261.44,138.13 276.26,159.78 			"/>
			<polygon class="st2" points="292.13,160.84 304.72,139.81 316.64,144.13 311.54,170.24 			"/>
			<polygon class="st2" points="319.99,178.88 344.24,172.45 350,183.73 329.07,199.01 			"/>
			<polygon class="st2" points="324.35,231.41 349.04,235.09 353.36,223.57 329.9,211.57 			"/>
			<polygon class="st2" points="299.05,254.12 311.84,274.21 324.35,268.21 316.64,242.17 			"/>
			<polygon class="st2" points="268.16,279.97 281,257.56 260.47,253.06 256.32,276.85 			"/>
			<polygon class="st2" points="232.88,217.86 211.52,233.33 217.04,245.89 241.78,237.94 			"/>
		</g>
	</g>
	<g>
		<circle class="st0" cx="97.34" cy="184.5" r="22.7"/>
		<g>
			<path class="st5" d="M87.79,160.6c-11.66,4.63-17.35,17.84-12.72,29.49c4.63,11.66,17.84,17.35,29.49,12.72
				c11.66-4.63,17.35-17.84,12.72-29.49C112.65,161.66,99.45,155.97,87.79,160.6z M100.58,193.63c-6.52,2.59-13.91-0.59-16.51-7.12
				c-2.59-6.52,0.59-13.91,7.12-16.51c6.52-2.59,13.91,0.59,16.51,7.12S107.1,191.04,100.58,193.63z"/>
			<circle class="st6" cx="96.01" cy="181.45" r="25.74"/>
			<path class="st5" d="M63.04,184.08l8.22,4.47c0,0-3.74-9,0.77-16.48l-8.99,3.03V184.08z"/>
			<polygon class="st5" points="74.78,166.87 71.29,160.38 78.83,153.77 85.27,158.05 			"/>
			<polygon class="st5" points="93.36,148.74 89.52,156.53 105.44,157.5 103.23,148.74 			"/>
			<polygon class="st5" points="116.68,155.7 109.29,159.4 119.44,170.78 123.68,163.24 			"/>
			<polygon class="st5" points="129.24,178.23 120.96,175.11 119.52,191.93 129.24,188.38 			"/>
			<polygon class="st5" points="123.68,203.11 118.17,194.54 105.51,205.37 116.48,210.28 			"/>
			<polygon class="st5" points="87.78,205.84 91.92,215.41 100.89,215.41 103.46,206.09 			"/>
			<polygon class="st5" points="84.4,204.42 74.34,208.37 67.7,201.67 72.5,191.93 			"/>
		</g>
	</g>
	<g>
		<circle class="st0" cx="595.19" cy="168.33" r="22.7"/>
		<g>
			<path class="st5" d="M585.63,144.42c-11.66,4.63-17.35,17.84-12.72,29.49c4.63,11.66,17.84,17.35,29.49,12.72
				c11.66-4.63,17.35-17.84,12.72-29.49C610.49,145.49,597.29,139.79,585.63,144.42z M598.42,177.46
				c-6.52,2.59-13.91-0.59-16.51-7.12s0.59-13.91,7.12-16.51c6.52-2.59,13.91,0.59,16.51,7.12S604.95,174.87,598.42,177.46z"/>
			<circle class="st6" cx="593.85" cy="165.27" r="25.74"/>
			<path class="st5" d="M560.88,167.9l8.22,4.47c0,0-3.73-9,0.77-16.48l-8.99,3.03V167.9z"/>
			<polygon class="st5" points="572.63,150.7 569.14,144.21 576.67,137.59 583.12,141.87 			"/>
			<polygon class="st5" points="591.2,132.57 587.36,140.36 603.28,141.32 601.07,132.57 			"/>
			<polygon class="st5" points="614.53,139.52 607.13,143.22 617.28,154.61 621.52,147.07 			"/>
			<polygon class="st5" points="627.09,162.06 618.8,158.93 617.36,175.75 627.09,172.2 			"/>
			<polygon class="st5" points="621.52,186.93 616.02,178.36 603.36,189.19 614.33,194.11 			"/>
			<polygon class="st5" points="585.63,189.66 589.77,199.24 598.74,199.24 601.3,189.91 			"/>
			<polygon class="st5" points="582.25,188.25 572.19,192.19 565.55,185.49 570.34,175.75 			"/>
		</g>
	</g>
	<g>
		<path class="st7" d="M113.84,480.43l125.52-181.98H380c0,0,10.56,0.48,16.32-12l60.96-109.92l53.28-59.52l9.84-0.72
			c0,0,12-13.44,12.48-2.4l17.04,141.36c0,0,3.6,14.16-6.48,6.96l-38.99-20.19c0,0-9.54-5.03-14.82,8.89l-59.7,108.97l-143.52,1.44
			c0,0-7.68-1.92-15.36,12.96l-48.79,97.47c0,0-4.66,11.92-15.22,10.96L113.84,480.43z"/>
		<path class="st8" d="M109.64,480.31l124.8-186.24h140.64c0,0,10.56,0.48,16.32-12l60.96-109.92l53.28-59.52l15.36-8.16
			c0,0,10.08-6.72,10.56,4.32L545,250.87c0,0,1.92,10.56-8.16,3.36l-34.56-18.24c0,0-9.12-5.28-14.4,8.64L425,355.51l-143.52,1.44
			c0,0-7.68-1.92-15.36,12.96l-58.08,104.16c0,0-1.44,9.6-12,8.64L109.64,480.31z"/>
	</g>
	<g>
		<circle class="st0" cx="488.45" cy="129.94" r="16.53"/>
		<g>
			<circle class="st0" cx="432.66" cy="135.15" r="60.72"/>
			<g>
				<path class="st5" d="M407.1,71.21c-31.19,12.39-46.42,47.72-34.03,78.91c12.39,31.19,47.72,46.42,78.91,34.03
					c31.19-12.39,46.42-47.72,34.03-78.91C473.61,74.05,438.28,58.82,407.1,71.21z M441.32,159.59
					c-17.45,6.94-37.23-1.59-44.16-19.04s1.59-37.23,19.04-44.16s37.23,1.59,44.16,19.04C467.3,132.88,458.77,152.65,441.32,159.59z
					"/>
				<circle class="st9" cx="429.08" cy="126.98" r="68.87"/>
				<path class="st5" d="M340.88,134.03l22,11.96c0,0-9.99-24.09,2.06-44.08l-24.06,8.12V134.03z"/>
				<polygon class="st5" points="372.3,87.99 362.96,70.63 383.12,52.93 400.37,64.38 				"/>
				<polygon class="st5" points="422,39.49 411.72,60.33 454.31,62.9 448.4,39.49 				"/>
				<polygon class="st5" points="484.4,58.09 464.61,67.99 491.77,98.46 503.12,78.28 				"/>
				<polygon class="st5" points="518,118.38 495.84,110.02 491.98,155.03 518,145.53 				"/>
				<polygon class="st5" points="503.12,184.94 488.38,162 454.52,190.99 483.87,204.13 				"/>
				<polygon class="st5" points="407.08,192.24 418.16,217.86 442.16,217.86 449.02,192.91 				"/>
				<polygon class="st5" points="398.04,188.46 371.12,199.01 353.36,181.09 366.18,155.03 				"/>
			</g>
		</g>
	</g>
	<g>
		<circle class="st0" cx="579.64" cy="323.67" r="32.95"/>
		<g>
			<path class="st2" d="M579.52,294.8c-15.89,0-28.77,12.88-28.77,28.77c0,15.89,12.88,28.77,28.77,28.77s28.77-12.88,28.77-28.77
				C608.29,307.68,595.41,294.8,579.52,294.8z M579.12,339.67c-8.89,0-16.1-7.21-16.1-16.1s7.21-16.1,16.1-16.1s16.1,7.21,16.1,16.1
				S588.01,339.67,579.12,339.67z"/>
			<g>
				<circle class="st3" cx="579.44" cy="323.18" r="32.61"/>
				<polygon class="st2" points="532.25,309.22 535.29,300.59 553.34,303.64 547.45,316.83 				"/>
				<polygon class="st2" points="563.39,294.8 558.6,279.83 566.43,276.32 576.29,290.73 				"/>
				<polygon class="st2" points="586.84,291.43 595.22,277.44 603.16,280.31 599.76,297.69 				"/>
				<polygon class="st2" points="605.38,303.44 621.52,299.16 625.35,306.66 611.42,316.83 				"/>
				<polygon class="st2" points="608.29,338.39 624.71,340.84 627.59,333.17 611.98,325.19 				"/>
				<polygon class="st2" points="591.45,353.5 599.96,366.87 608.29,362.87 603.16,345.55 				"/>
				<polygon class="st2" points="570.9,370.7 579.44,355.79 565.78,352.79 563.02,368.62 				"/>
				<polygon class="st2" points="547.42,329.37 533.21,339.67 536.88,348.02 553.34,342.73 				"/>
			</g>
		</g>
	</g>
</g>
<g>
	<ellipse class="st10" cx="141.2" cy="524.47" rx="50.04" ry="10.5"/>
	<g>
		<g>
			<path class="st11" d="M106.28,517.09c0,0,0.36-73.98,1.08-90.36l6.3,3.96h6.84l-10.08,84.6l-3,2.04L106.28,517.09z"/>
			<path class="st12" d="M125.54,430.69c0,0-14.95,76.32-11.88,86.4l1.08,1.44l-9,2.34l1.68-3.54c0,0,4.26-13.02,2.82-29.94
				c-1.44-16.92-0.01-52.56,3.42-56.7H125.54z"/>
			<path class="st13" d="M106.28,517.09c0,0-5.58,4.68,0,4.68s15.66,0,15.66,0s4.86-1.44-2.52-3.6l-5.76-1.08
				C113.66,517.09,115.28,519.07,106.28,517.09z"/>
		</g>
		<g>
			<path class="st14" d="M146.63,429.43c0,0,3.93,10.08,3.39,27.72c-0.54,17.64,0.05,57.78,0.05,57.78l2.29,1.26l1.62,2.34h-7.35
				v-1.95L143,498.91l-6.66-50.04l-1.5-18.62L146.63,429.43z"/>
			<path class="st15" d="M129.86,429.25c0,0,3.42,15.3,5.58,18.54c0,0,1.98,33.12,9.36,68.4l1.83,0.39c0,0-1.29-18.75-3.63-26.49
				c-2.34-7.74-5.94-59.4-5.94-61.74s0,2.34,0,2.34L129.86,429.25z"/>
			<path class="st16" d="M144.8,516.19c0,0-3.78,0.36-3.42,4.68h18.9c0,0,2.88,0,0-2.34c-2.88-2.34-7.92-2.34-7.92-2.34
				S156.14,518.71,144.8,516.19z"/>
		</g>
		<path class="st17" d="M106.28,372.73h32.94c0,0,18.52,59.62,8.28,59.5c0,0-17.82,5.66-42.66,1.34c0,0-8.64,0-5.22-15.48
			L106.28,372.73z"/>
	</g>
	<polygon class="st18" points="209.96,296.41 232.28,299.65 232.28,288.49 261.8,299.65 239.84,297.85 239.84,308.65 	"/>
	<polygon class="st18" points="205.36,281.77 231.64,261.61 218.5,249.37 256.12,234.97 234.88,252.97 245.68,262.33 	"/>
	<path class="st14" d="M161.61,331.56c0,0,1.21-4.07,0-7.19c0,0,4.01-10.62,6.8-10.46c2.79,0.16,6.28,0.35,6.28,0.35
		s-0.37,14.67-9.49,15.63l-0.69,4.42L161.61,331.56z"/>
	
		<rect x="58.93" y="338.38" transform="matrix(0.0917 -0.9958 0.9958 0.0917 -291.6792 379.7184)" class="st19" width="6.75" height="22.72"/>
	<path class="st17" d="M80.23,396.96l-44.64-4.02c-2.25-0.2-3.91-2.19-3.71-4.44l2.11-23.42c0.2-2.25,2.19-3.91,4.44-3.71
		l44.64,4.02c2.25,0.2,3.91,2.19,3.71,4.44l-2.11,23.42C84.46,395.51,82.48,397.16,80.23,396.96z"/>
	<path class="st20" d="M82.27,374.28l-44.64-4.02c-2.25-0.2-3.91-2.19-3.71-4.44l0.07-0.73c0.2-2.25,2.19-3.91,4.44-3.71l44.64,4.02
		c2.25,0.2,3.91,2.19,3.71,4.44l-0.07,0.73C86.5,372.82,84.52,374.48,82.27,374.28z"/>
	<path class="st21" d="M83.56,371.27l-47.43-4.27c-2.25-0.2-3.91-2.19-3.71-4.44l0.67-7.4c0.2-2.25,2.19-3.91,4.44-3.71l47.43,4.27
		c2.25,0.2,3.91,2.19,3.71,4.44l-0.67,7.4C87.79,369.81,85.81,371.47,83.56,371.27z"/>
	<path class="st22" d="M61.17,376.05l-2.41-0.22c-1.05-0.09-1.83-1.02-1.73-2.08l0.81-8.99c0.09-1.05,1.02-1.83,2.08-1.73l2.41,0.22
		c1.05,0.09,1.83,1.02,1.73,2.08l-0.81,8.99C63.15,375.37,62.22,376.15,61.17,376.05z"/>
	<path class="st23" d="M60.35,349.74c0,0-3.63-9.53,4.77-6.89c0,0,3.33-0.14,2.16,5.52l4.96,0.63l-1.46,3.5l-4.88-1.48
		C65.91,351.01,62.05,351.6,60.35,349.74z"/>
	<path class="st24" d="M114.32,322.45c0,0,24.48-5.1,30.24,22.89c0,0,2.64,11.43,6.72,6.15c0,0,5.52-15.36,8.88-20.4
		c0,0,8.06,1.2,3.79,12c-4.27,10.8-8.11,23.52-15.55,21.84c-7.44-1.68-8.64-6-8.64-6v13.92c0,0-12.96,11.52-32.88,0
		c0,0-0.96-12.96-2.4-14.4c0,0-0.28,28.05-34.1-4.57c0,0-0.13-4.62,1.86-4.88l1.68,0.15c0,0,9.99,4.04,19.99,8.58
		C93.92,357.73,95.38,318.58,114.32,322.45z"/>
	<g>
		<path class="st25" d="M155.96,298.57c0,0-7.2,8.64,1.26,14.94C157.22,313.51,154.16,307.21,155.96,298.57z"/>
		<path class="st26" d="M158.3,298.57l22.68-9c0,0-2.34,14.76,2.7,25.2l-22.32-1.26C161.36,313.51,156.5,308.65,158.3,298.57z"/>
		<path class="st27" d="M178.06,290.73c0,0-1.58,15.04,0.94,19.9c0,0-13.17,1.84-19.91-0.97c0,0-2.23-6.41-0.79-11.09L178.06,290.73
			z"/>
		<path class="st28" d="M168.41,313.91c0,0-0.75,8.06,3.93,10.4c4.68,2.34,1.4,4.86-1.55,1.8c-2.95-3.06-7.63-7.43-6.73-12.45
			L168.41,313.91z"/>
		
			<ellipse transform="matrix(0.9953 -0.0971 0.0971 0.9953 -28.3849 19.5118)" class="st29" cx="186.38" cy="301.54" rx="3.78" ry="17.01"/>
		<path class="st30" d="M192.13,300.39c-0.21-2.13-2.1-3.68-4.23-3.48l-5.84,0.57v1.08l1.15,7.76l5.56-0.54
			c2.13-0.21,3.68-2.1,3.48-4.23L192.13,300.39z"/>
		<path class="st31" d="M190.64,314.77c0,0-0.66-4.32-5.52-6.12"/>
	</g>
	<g>
		<path class="st32" d="M114.93,313.57v12.59c0,0,9.22,16.43,11.15,6.93c0,0,1.35-6.84-1.31-9.72v-5.44L114.93,313.57L114.93,313.57
			"/>
		<path class="st33" d="M114.93,313.57l9.84,4.36v5.44C124.77,323.36,115.43,321.68,114.93,313.57"/>
		<g>
			<path class="st34" d="M135.08,303.25c0,0-1.62,14.94-8.28,14.76s-10.26-0.81-14.49-8.33l-6.03-8.14l5.22-11.97l9.18-5.22
				l10.26,1.65l4.14,6.63V303.25z"/>
			<path class="st35" d="M119.95,310.81c0,0,5.73,1.32,9.65-0.72C129.6,310.09,126.05,318.13,119.95,310.81z"/>
			<path class="st36" d="M126.68,305.17c0,0,2.28,2.64,0,2.64"/>
			<circle cx="128.52" cy="299.65" r="1.08"/>
			<circle cx="118.87" cy="301.09" r="1.08"/>
			<path class="st37" d="M114.93,313.57c0,0-13.87-9.08-10.09-22.84l0.72-2.24c0,0-5.04-7.74,2.88-12.24s9.72-4.68,13.68,2.52
				l2.34,1.26c0,0,15.48,3.78,10.62,23.22c0,0,0.72-13.98-7.92-17.25c0,0-16.74-0.57-16.56,13.83c0,0-5.94-2.52-0.54,6.21
				C115.46,314.77,114.93,313.57,114.93,313.57z"/>
			<path class="st38" d="M105.56,288.49c0,0,7.92-11.7,16.56-9.72l1.2,0.65c0,0-11.93,2.21-18.72,12.3L105.56,288.49z"/>
		</g>
	</g>
</g>
<g id="PERSON2">
	<g>
		<g>
			<ellipse class="st39" cx="463.59" cy="521" rx="49.67" ry="8.51"/>
			<path class="st40" d="M446.84,512.95c0,0,10.08-1.26,9.54,4.5l0.02,3.78h-28.64c0,0,0.03-6.76,10.08-7.56L446.84,512.95z"/>
			<path class="st40" d="M493.46,512.83c0,0,9.18-0.18,9.9,4.2l0.48,3.12h-18.48C485.36,520.15,483.74,513.26,493.46,512.83z"/>
			<polygon class="st41" points="446.96,502.21 446.82,512.76 452.69,513.22 452.69,502.21 			"/>
			<polygon class="st41" points="494.54,502.21 494.54,513.22 499.49,513.22 499.49,501.25 			"/>
			
				<ellipse transform="matrix(0.9958 -0.092 0.092 0.9958 -45.3652 42.8543)" class="st42" cx="441.89" cy="513.22" rx="4.95" ry="1.17"/>
			<ellipse class="st42" cx="494.54" cy="513.22" rx="4.95" ry="1.17"/>
			<path class="st42" d="M504.45,367.24l-0.61,136.53c0,0-11.79,2.52-13.33,0c0,0-17.88-116.64-16.91-119.88l-9.11,52.18
				c0,0-7.16,65.62-8.08,68.82c0,0-9.92,2.92-12.44,0c0,0-1.44-83.2,0-87.16c0,0,8.75-48.02,15.84-51.35L504.45,367.24z"/>
			<path class="st43" d="M474.93,397.21l-1.34-11.88c0,0-13.07,47.66-9.11,50.74C464.48,436.07,471.7,404.23,474.93,397.21z"/>
			<path class="st43" d="M504.45,364.68c0,0,0.11,12.37-40.72,13.45c0,0-11.13,1.16-3.93-11.75L504.45,364.68z"/>
			<path class="st44" d="M460.64,360.37l43.81-1.68v6.84c0,0-27.73,7.46-44.65,0.85L460.64,360.37z"/>
		</g>
		<polygon class="st42" points="504.45,365.53 504.45,367.24 503.84,369.11 502.71,368.24 		"/>
	</g>
	<g>
		<g>
			<path class="st45" d="M504.45,349.99v8.7c0,0-0.82,4.45-17.41,4.56L504.45,349.99z"/>
			<polygon class="st46" points="477.2,362.72 482.3,367.81 487.04,363.25 481.41,357.62 			"/>
			<path class="st46" d="M463.76,283.81l31.2,2.19c0,0,16.56-0.51,18.48,25.17c1.92,25.68,5.28,15.12-3.36,30.72
				s-23.04,21.36-23.04,21.36l-5.28-5.28l-25.68-19.2l-22.46,24.48l-9.7-3.84c0,0,17.76-30.72,23.04-30.24
				C446.96,329.17,447.92,281.17,463.76,283.81z"/>
			<path class="st47" d="M433.62,363.25c0,0,15.98-19.68,19.82-45.6c0,0,0.24,21.6,18.96,21.12c0,0,8.16,2.88,23.52-23.28
				c0,0,0.24,10.8,2.64,14.4c0,0-13.44,18-14.64,24.96c0,0-5.04,5.28-6.72,8.4c0,0-13.92,1.2-16.56-2.88l-4.56-21.6L433.62,363.25z"
				/>
			<line class="st48" x1="477.2" y1="296.23" x2="474.32" y2="363.25"/>
			<circle class="st49" cx="476.72" cy="354.19" r="0.96"/>
			<circle class="st49" cx="476.24" cy="360.79" r="0.96"/>
			<circle class="st24" cx="477.2" cy="347.59" r="0.96"/>
			<circle class="st49" cx="477.44" cy="340.51" r="0.96"/>
			<circle class="st49" cx="477.2" cy="347.59" r="0.96"/>
			<circle class="st49" cx="477.68" cy="332.83" r="0.96"/>
			<circle class="st49" cx="478.16" cy="325.45" r="0.96"/>
			<circle class="st49" cx="478.4" cy="318.61" r="0.96"/>
			<circle class="st49" cx="478.7" cy="311.77" r="0.96"/>
			<circle class="st49" cx="479.12" cy="304.93" r="0.96"/>
			<circle class="st49" cx="479.36" cy="298.84" r="0.96"/>
			<line class="st50" x1="481.41" y1="357.62" x2="487.04" y2="363.25"/>
			<path class="st51" d="M477.2,363.25c0,0-7.73-1.14-6.81,3c0,0-8.61,7.74-2.31,8.1c6.3,0.36,13.33-7.42,13.33-7.42L477.2,363.25z"
				/>
			<polygon class="st46" points="423.92,359.41 421.37,363.41 431.36,367.81 433.62,363.25 			"/>
			<polygon class="st51" points="422.75,364.02 421.37,367.24 427.55,368.73 429.31,366.91 			"/>
			<line class="st50" x1="423.92" y1="359.41" x2="433.62" y2="363.25"/>
			<path class="st51" d="M421.37,367.24c0,0-1.89,3.69,0,4.59c1.89,0.9,6.52,1.73,6.19-3.1"/>
			<g>
				
					<rect x="417.87" y="359.07" transform="matrix(0.2345 -0.9721 0.9721 0.2345 -37.9287 693.5052)" class="st52" width="6.99" height="23.52"/>
				<path class="st53" d="M432.81,421.91l-45.4-10.85c-2.2-0.52-3.55-2.73-3.03-4.93l5.72-23.95c0.52-2.2,2.73-3.55,4.93-3.03
					l45.4,10.85c2.2,0.52,3.55,2.73,3.03,4.93l-5.72,23.95C437.21,421.08,435,422.43,432.81,421.91z"/>
				<path class="st54" d="M438.29,398.98l-45.4-10.85c-2.2-0.52-3.55-2.73-3.03-4.93l0.24-1.02c0.52-2.2,2.73-3.55,4.93-3.03
					l45.4,10.85c2.2,0.52,3.55,2.73,3.03,4.93l-0.24,1.02C442.69,398.15,440.48,399.5,438.29,398.98z"/>
				<path class="st55" d="M440.06,396.09l-48.22-11.52c-2.2-0.52-3.55-2.73-3.03-4.93l1.85-7.76c0.52-2.2,2.73-3.55,4.93-3.03
					l48.22,11.52c2.2,0.52,3.55,2.73,3.03,4.93l-1.85,7.76C444.46,395.26,442.25,396.62,440.06,396.09z"/>
				<path class="st56" d="M416.34,397.63l-2.57-0.61c-1.03-0.25-1.66-1.28-1.42-2.31l2.2-9.21c0.25-1.03,1.28-1.66,2.31-1.42
					l2.57,0.61c1.03,0.25,1.66,1.28,1.42,2.31l-2.2,9.21C418.4,397.24,417.37,397.87,416.34,397.63z"/>
			</g>
			<path class="st49" d="M490.4,282.17c0,0,7.68,1.44,1.2,8.16c-6.48,6.72-10.8,11.76-16.32,4.8s-6.96-12.24-1.2-12.96H490.4z"/>
			<path class="st24" d="M489.65,281.93c0,0,7.18,1.35,1.12,7.63s-10.1,11-15.26,4.49c-5.16-6.51-6.51-11.44-1.12-12.12H489.65z"/>
		</g>
		<path class="st57" d="M490.25,268.87l0.26,15.47c0,0-7.98,8.64-11.6,4.86c-3.62-3.78-6.32-5.22-4.88-8.82L490.25,268.87z"/>
		<path class="st58" d="M489.19,272.17l-15.1,8.18c0,0-2.77,6.17,3.68,2.74C484.26,279.65,486.3,277.25,489.19,272.17z"/>
		<g>
			<path class="st59" d="M465.2,261.67c0,0-0.9-18,16.02-9.9c0,0,10.44,3.78,9.18,16.02c-1.26,12.24-17.28,15.48-20.7,10.08
				C466.28,272.47,464.48,273.37,465.2,261.67z"/>
			<path class="st60" d="M471.14,265.81c0,0,2.34-1.08,3.78,1.62"/>
			<path class="st61" d="M469.16,269.95c0,0,5.53,3.6,8.61,1.26C477.77,271.21,473.12,279.14,469.16,269.95z"/>
			<path class="st62" d="M466.49,254.45c0,0-7.62-14.38,6.98-12.04c14.59,2.34,21.25,5.94,19.99,14.4
				c-1.26,8.46-3.21,12.06-3.21,12.06s2.67-8-3.63-13.36c0,0-10.8-2.48-11.7-5.36C474.92,250.15,467.6,251.2,466.49,254.45z"/>
			<circle cx="469.89" cy="259.7" r="1.06"/>
			<circle cx="479.96" cy="261.81" r="1.06"/>
		</g>
	</g>
</g>
</svg>
