<?xml version="1.0" encoding="utf-8"?>
<!-- Generator: Adobe Illustrator 25.0.1, SVG Export Plug-In . SVG Version: 6.00 Build 0)  -->
<svg version="1.1" id="bank" xmlns="http://www.w3.org/2000/svg" xmlns:xlink="http://www.w3.org/1999/xlink" x="0px" y="0px"
	 viewBox="0 0 182 182" style="enable-background:new 0 0 182 182;" xml:space="preserve">
<style type="text/css">
	.st0{fill:#1E1E46;}
	.st1{fill:none;stroke:#FFFFFF;stroke-width:10.7317;stroke-miterlimit:10;}
	.st2{fill:#FFFFFF;}
</style>
<rect class="st0" width="182" height="182"/>
<g>
	<circle class="st1" cx="91" cy="90.89" r="84.37"/>
	<path class="st2" d="M136.34,119.2h-3.51V74.11h1.62c1.34,0,2.43-1.09,2.43-2.43c0-1.34-1.09-2.43-2.43-2.43h-1.62h-10.17h-14.4H98
		H83.51h-9.63H58.85h-9.63h-1.71c-1.34,0-2.43,1.09-2.43,2.43c0,1.34,1.09,2.43,2.43,2.43h1.71v45.09h-2.97
		c-1.79,0-3.24,1.45-3.24,3.24v3.33c0,1.79,1.45,3.24,3.24,3.24h90.09c1.79,0,3.24-1.45,3.24-3.24v-3.33
		C139.58,120.65,138.13,119.2,136.34,119.2z M122.66,74.11v45.09h-14.4V74.11H122.66z M98,74.11v45.09H83.51V74.11H98z M58.85,74.11
		h15.03v45.09H58.85V74.11z"/>
	<path class="st2" d="M142.1,141.61H39.86c-2.09,0-3.78-1.69-3.78-3.78v-1.62c0-2.09,1.69-3.78,3.78-3.78H142.1
		c2.09,0,3.78,1.69,3.78,3.78v1.62C145.88,139.92,144.19,141.61,142.1,141.61z"/>
	<path class="st2" d="M145.83,59.92c-0.17-1.58-1.12-2.91-2.47-3.62C133.27,47.05,96.2,35.23,96.2,35.23c-5.9-1.97-10.44,0-10.44,0
		C52.42,45.78,41.34,52.97,37.73,56.89c-0.56,0.48-1.01,1.07-1.29,1.76c-0.62,1.19-0.35,1.78-0.35,1.78c0,2.58,2.1,4.68,4.68,4.68
		H141.2c2.58,0,4.68-2.1,4.68-4.68C145.88,60.26,145.86,60.09,145.83,59.92z"/>
</g>
</svg>
