<?xml version="1.0" encoding="utf-8"?>
<!-- Generator: Adobe Illustrator 25.0.1, SVG Export Plug-In . SVG Version: 6.00 Build 0)  -->
<svg version="1.1" id="Слой_1" xmlns="http://www.w3.org/2000/svg" xmlns:xlink="http://www.w3.org/1999/xlink" x="0px" y="0px"
	 viewBox="0 0 207.44 208.57" style="enable-background:new 0 0 207.44 208.57;" xml:space="preserve">
<style type="text/css">
	.st0{fill:#1E1E46;}
	.st1{fill:#FFFFFF;}
</style>
<rect class="st0" width="207.44" height="208.57"/>
<g id="people">
	<g id="person3">
		<circle class="st1" cx="106.98" cy="35.76" r="17.7"/>
		<path class="st1" d="M140.93,115.22L135,71.24c-0.04-0.32-0.12-0.62-0.2-0.92c-0.73-2.91-4.56-14.85-18.06-15.07v-0.01l-0.95,0.01
			c-0.09,0-0.17,0-0.26,0L95.6,55.52v0c-12.26,0.42-16.35,10.64-17.44,14.37c-0.16,0.43-0.28,0.88-0.34,1.35l-5.93,43.99
			c-0.46,3.45,1.95,6.62,5.4,7.08c3.45,0.46,6.62-1.95,7.08-5.4l3.97-29.44v96.73c0,3.48,2.82,6.3,6.3,6.3h3.3
			c3.48,0,6.3-2.82,6.3-6.3v-63.3h4.54v63.3c0,3.48,2.82,6.3,6.3,6.3h3.3c3.48,0,6.3-2.82,6.3-6.3v-63.3V89l3.76,27.91
			c0.46,3.45,3.64,5.87,7.08,5.4C138.98,121.84,141.39,118.67,140.93,115.22z"/>
	</g>
	<g id="person2">
		<circle class="st1" cx="61.24" cy="39.46" r="16.8"/>
		<path class="st1" d="M75.9,124.57c-3.72-0.5-6.32-3.92-5.82-7.64l6.39-47.41c0.07-0.51,0.2-0.99,0.37-1.45
			c0.47-1.61,1.46-4.35,3.34-7.08c-2.23-1.56-5.1-2.65-8.78-2.71v-0.01l-0.84,0.01c-0.08,0-0.15,0-0.23,0l-17.67,0.26v0
			c-10.87,0.39-14.5,9.86-15.47,13.3c-0.14,0.4-0.24,0.81-0.3,1.25l-5.26,40.74c-0.41,3.19,1.73,6.13,4.79,6.56
			c3.06,0.43,5.87-1.81,6.28-5l3.52-27.26v89.59c0,3.22,2.5,5.83,5.59,5.83h2.93c3.09,0,5.59-2.61,5.59-5.83v-58.62h4.03v58.62
			c0,3.22,2.5,5.83,5.59,5.83h2.93c3.09,0,5.59-2.61,5.59-5.83v-53.3C77.64,124.61,76.78,124.69,75.9,124.57z"/>
	</g>
	<g id="person1">
		<circle class="st1" cx="151.2" cy="39.46" r="16.8"/>
		<path class="st1" d="M136.72,124.57c3.72-0.5,6.32-3.92,5.82-7.64l-6.39-47.41c-0.07-0.51-0.2-0.99-0.37-1.45
			c-0.47-1.61-1.46-4.35-3.34-7.08c2.23-1.56,5.1-2.65,8.78-2.71v-0.01l0.84,0.01c0.08,0,0.15,0,0.23,0l17.67,0.26v0
			c10.87,0.39,14.5,9.86,15.47,13.3c0.14,0.4,0.24,0.81,0.3,1.25l5.26,40.74c0.41,3.19-1.73,6.13-4.79,6.56
			c-3.06,0.43-5.87-1.81-6.28-5l-3.52-27.26v89.59c0,3.22-2.5,5.83-5.59,5.83h-2.93c-3.09,0-5.59-2.61-5.59-5.83v-58.62h-4.03v58.62
			c0,3.22-2.5,5.83-5.59,5.83h-2.93c-3.09,0-5.59-2.61-5.59-5.83v-53.3C134.98,124.61,135.84,124.69,136.72,124.57z"/>
	</g>
</g>
</svg>
