<?xml version="1.0" encoding="utf-8"?>
<!-- Generator: Adobe Illustrator 25.0.1, SVG Export Plug-In . SVG Version: 6.00 Build 0)  -->
<svg version="1.1" id="Слой_1" xmlns="http://www.w3.org/2000/svg" xmlns:xlink="http://www.w3.org/1999/xlink" x="0px" y="0px"
	 viewBox="0 0 828 552" style="enable-background:new 0 0 828 552;" xml:space="preserve">
<style type="text/css">
	.st0{fill:#FFFFFF;}
	.st1{fill:#EAF3FA;}
	.st2{fill:#F7FBFE;}
	.st3{fill:#E2EFFF;}
	.st4{fill:#D8E9FB;}
	.st5{fill:#8CB7EA;}
	.st6{fill:#B3D5F0;}
	.st7{fill:#B0D295;}
	.st8{fill:#82B479;}
	.st9{fill:#C5544B;}
	.st10{fill:#223760;}
	.st11{fill:#F9A046;}
	.st12{fill:#ED8933;}
	.st13{fill:#C37739;}
	.st14{fill:#223564;}
	.st15{fill:#FFB27C;}
	.st16{fill:#FCB37E;}
	.st17{fill:#E6945D;}
	.st18{fill:#223861;}
	.st19{fill:#B54E3F;}
	.st20{fill:#AA3E3A;}
	.st21{fill:#E9945B;}
	.st22{fill:#2D3A64;}
	.st23{fill:none;stroke:#A1CA92;stroke-width:2;stroke-miterlimit:10;}
	.st24{fill:#85B273;}
	.st25{fill:#3F6196;}
	.st26{fill:#243763;}
	.st27{fill:#FFB27B;}
	.st28{fill:#AA3F39;}
	.st29{fill:#B94B42;}
	.st30{fill:#BA4B41;}
	.st31{fill:none;stroke:#000000;stroke-miterlimit:10;}
	.st32{fill:#233866;}
	.st33{fill:#2A478B;}
	.st34{fill:#223762;}
	.st35{fill:#A8403A;}
	.st36{fill:none;stroke:#B84C42;stroke-width:2;stroke-miterlimit:10;}
	.st37{fill:#B84C42;}
	.st38{fill:#FEB27C;}
	.st39{fill:#FCB280;}
	.st40{fill:#E29867;}
	.st41{fill:#F7A145;}
	.st42{fill:#F99A45;}
	.st43{fill:#EB9359;}
	.st44{fill:none;stroke:#495066;stroke-width:3;stroke-miterlimit:10;}
</style>
<rect class="st0" width="828" height="552"/>
<g id="fon">
	<path class="st1" d="M54,453.89c0,0-17-72,59-102s59-53,20-124s31-138,155-129s173,41,211,109l41,1c0,0,123-44,184,33
		s66,131,24,212H54z"/>
	<polygon class="st2" points="301,129.89 467.84,163.87 467.84,188.89 	"/>
	<path class="st2" d="M143.77,138.69L529,276l-26,46.89l-351.4-60.83c0,0-14.57-25.99-18.6-34.17
		C128.98,219.71,105.53,176.45,143.77,138.69z"/>
	<path class="st1" d="M146.66,335.22c0,0,257.34,0.43,296.22,27.07l34.54-43.83l-325.83-56.4
		C151.6,262.06,189.77,314.37,146.66,335.22z"/>
	<path class="st3" d="M103.81,355.94c0,0,33.04-12.67,42.85-20.72c0,0,265.26,1.15,296.22,27.07l-11.52,23.76l-172.08,25.2
		L103.81,355.94z"/>
	<path class="st4" d="M770.5,324.99c0,0-14.42,20.59-43.22-12.81c-28.8-33.41-58.32-44.93-58.32-44.93s-7.2-1.44-16.56,14.4
		l-63.36-58.32c0,0-11.52-10.8-32.4,34.56s-66.96,54.29-66.96,54.29s-3.6-20.45-46.8,50.11c0,0-10.8,23.33-38.16,10.94
		c-27.36-12.38-49.68-25.34-108.72,19.3c0,0-38.59,18.05-104.07-5.24c0,0-66.47-34.82-88.12-31.35c0,0-43.07,21.6-47.23,52.54
		l199.11,33.02l398.16-41.04l121.36-46.82L770.5,324.99z"/>
	<path class="st5" d="M772.94,385.17l1.92-30.97c0,0-128.94,18.16-209.58,44.08l-213.12,24.48c0,0-9.31,9.36-78.82,0
		c0,0-30.77-14.98-70.22-5.76S116,404.05,116,404.05s-31.62-6.86-38.16,0c-6.54,6.86,120.24,37.44,120.24,37.44l452.88-5.04
		L772.94,385.17z"/>
	<path class="st6" d="M54,453.89c0,0-2.13-20.84,2.57-45.42l4.26-10.91c0,0,173.96,46.09,198.44,39.61
		c0,0,393.84-41.06,383.76-39.61c-10.08,1.45,120.81-30.26,130.24-12.96c0.56,3.78-14.89,48.95-17.24,52.83
		c-2.71,4.48-407.49,13.43-407.49,13.43L54,453.89z"/>
	<path class="st7" d="M748,453.89l8.05-16.47c0,0-79.89-41.79-147.57-20.77c-67.67,21.02-397.44,28.43-397.44,28.43
		s-90.72-34.56-119.52-7.2c0,0-36.88-10.48-37.52,16H748z"/>
	<circle class="st2" cx="301.76" cy="162.85" r="10.8"/>
	<path class="st8" d="M726.86,453.52c0,0-79.86-30.03-63.3-40.11c16.56-10.08,74.96,25.24,80.36,40L726.86,453.52z"/>
	<path class="st8" d="M766.8,407.82c0,0-34.84-61.73-17.2-68.57c17.64-6.84,21.58,54.56,21.58,54.56L766.8,407.82z"/>
	<path class="st5" d="M774.86,354.21c0,0,0.57,21.03-1.58,30.39c0,0-1.1-2.82-3.66-2.93L774.86,354.21z"/>
	<path class="st8" d="M759.32,428.35c0,0-38.88-99.22-67.68-74.72c-28.8,24.5,58.6,95.55,58.6,95.55S760.39,430.98,759.32,428.35z"
		/>
	<path class="st2" d="M556.64,257.89c0,0,19.44-41.76,32.4-34.56c12.96,7.2,37.55,34.56,37.55,34.56s-19.79-13.44-19.79-4.32
		s1.31,16.8-15.19,4.32c0,0-22.25-11.04-23.69-2.88S556.64,257.89,556.64,257.89z"/>
	<path class="st2" d="M656.18,275.98c0,0,6.78-12.33,12.78-8.73s9.36,4.08,31.92,24.24c0,0-21.12-17.22-32.16-12.45
		c0,0-5.28-0.33-7.2-3.06C661.52,275.98,657.08,273.91,656.18,275.98z"/>
</g>
<g id="person1">
	<g>
		<path class="st9" d="M449.29,433.94c0,0-4.61,3.83-0.65,6.23c3.96,2.4,5.52,3.84,9.6,4.32c0,0,1.56,9.4,11.76,9.4
			c0,0,7.84,1.52,6.26-3.7L449.29,433.94z"/>
		<path class="st10" d="M464.72,428.77c0,0,6.12,15.72,9.48,18.12c3.36,2.4,3.24,5.04-3.36,4.2s-9-3.85-11.76-8.16
			c0,0-15-3.36-8.16-12.12c0,0,3.36-4.44,4.68-4.92L464.72,428.77z"/>
		<path class="st9" d="M517.99,446.72c0,0-2.75,7.17,8.89,7.17s27.72,3.2,25.68-4.48L517.99,446.72z"/>
		<path class="st10" d="M519.33,437.81c0,0-4.21,12.32,2.27,12.68c6.48,0.36,10.08,0,10.08,0s21.96,6,20.88-1.08
			c0,0,0.77-2.3-7.12-2.76c0,0-9.56-3.29-16.22-10.58L519.33,437.81z"/>
		<path class="st11" d="M492.61,274.92c0,0-5.09,51.13-13.37,66.97s-22.2,37.92-23.64,84c0,0-1.92,7.2,9.12,2.88
			c0,0,74.46-134.52,77.87-148.89L492.61,274.92z"/>
		<path class="st11" d="M529,437.81c0,0,17.8-138.16,16.36-157.6l-2.77-0.33l-37.55,74.87c0,0,5.07,74.43,14.3,83.06
			C519.33,437.81,520.32,444.44,529,437.81z"/>
		<path class="st12" d="M507.37,381.09l34.75-54.88c0,0,5.64-40.48,3.24-46l-2.77-0.33l-37.55,74.87L507.37,381.09z"/>
	</g>
	<g>
		<path class="st13" d="M411.88,410.99l-0.63-0.48c-0.48-0.37-0.57-1.06-0.2-1.54l114.81-148.81c0.37-0.48,1.06-0.57,1.54-0.2
			l0.63,0.48c0.48,0.37,0.57,1.06,0.2,1.54L413.42,410.79C413.05,411.27,412.36,411.36,411.88,410.99z"/>
		<path class="st14" d="M417.16,408.37l-5.42-4.68c-0.22-0.19-0.24-0.52-0.05-0.74l0.93-1.07c0.19-0.22,0.52-0.24,0.74-0.05
			l5.42,4.68c0.22,0.19,0.24,0.52,0.05,0.74l-0.93,1.07C417.71,408.53,417.38,408.56,417.16,408.37z"/>
		<path class="st14" d="M542.9,245.75l-13.92,17.53c-0.47,0.59-1.33,0.69-1.93,0.22l-1.94-1.54c-0.59-0.47-0.69-1.33-0.22-1.93
			l13.92-17.53c0.47-0.59,1.33-0.69,1.93-0.22l1.94,1.54C543.27,244.3,543.37,245.16,542.9,245.75z"/>
	</g>
	<path class="st15" d="M531.86,139.37c0,0,5.1,27.92-15.42,19.4c0,0-6.63-2.35-7.56-3.6l-2.64-13.08l14.45-5.47l9.55-0.53
		L531.86,139.37z"/>
	<path class="st16" d="M524.12,166.21v6.36c0,0-6.12,2.04-19.56-5.76c0,0,3.96-4.44,4.32-11.64c0,0,9.36,5.81,15.24,5.18V166.21z"/>
	<path class="st17" d="M524.12,166.21v-5.86c0,0-4.87,0.4-12.52-3.53C511.6,156.82,518.84,167.53,524.12,166.21z"/>
	<path class="st18" d="M519.33,180.01c0,0-6.81-12.28-20.93-9.68l-30.56-4.01c0,0-30,1.21-19.2,54.49
		c10.8,53.28,41.76,44.64,41.76,44.64v-18l1.81-17.56C492.21,229.89,531.44,213.08,519.33,180.01z M492.61,225.95l5.35-51.94
		c0,0,22.32-5.04,19.2,22.08C517.16,196.09,515.83,215.37,492.61,225.95z"/>
	<path class="st19" d="M484.73,193.9c0,0,9.75-24.09,19.83-27.09c0,0,12.96,7.92,19.56,5.76c0,0,27.24-0.12,21.24,107.64
		c0,0-48.4,4.33-55.44-8.16l0.48-24.6l19.68-45.48C510.08,201.97,493.61,195.34,484.73,193.9z"/>
	<path class="st20" d="M508.62,279.88c0,0,8.66-66.81,1.46-77.91l-16.02,22.92l-2.82,20.62l-0.84,1.94l-0.48,24.6
		C489.92,272.05,493,278.85,508.62,279.88z"/>
	<path class="st14" d="M542.37,245.76l-13.92,17.53c-0.47,0.59-1.33,0.69-1.93,0.22l-1.94-1.54c-0.59-0.47-0.69-1.33-0.22-1.93
		l13.92-17.53c0.47-0.59,1.33-0.69,1.93-0.22l1.94,1.54C542.74,244.3,542.84,245.17,542.37,245.76z"/>
	<path class="st15" d="M486.99,194.34c0,0-22.51,34.75-1.63,51.31c0,0,19.92,10.56,35.28,12c0,0,18.59,8.88,17.57-4.56
		c0,0-0.53-0.96-7.01-0.96c0,0,8-6.51-7.08-1.68c0,0-24.9-13.28-29.67-21.64c0,0,10.59-20.36,15.63-26.84
		C510.6,201.45,489.12,194.02,486.99,194.34z"/>
	<path class="st21" d="M545.04,222.5l4.16,7.31c0,0,30.24-3.6,34.8-1.68c0,0,3.36-14.03,12.96-4.26c0,0,0.59,13.38-5.35,4.5
		c0,0-4.49-4.56-3.29,4.56c0,0-0.72,4.8-11.04,7.44c-10.32,2.64-14.35,6.96-31.06,6.72L545.04,222.5z"/>
	<path class="st22" d="M508.88,155.17c0,0-24.48-30.72,8.64-32.64s18.16,21.28,11.48,16.16c-6.68-5.12-13.4-1.28-13.88,5.44
		c0,0-11.04-3.36-4.32,4.32L508.88,155.17z"/>
	<polygon class="st13" points="526.59,263.43 526.52,263.51 524.25,261.58 510,280.05 513.5,280.41 513.5,280.41 	"/>
	<g>
		<path class="st13" d="M590.6,425.89l-0.79,0c-0.61,0-1.1-0.49-1.09-1.1l0.36-187.95c0-0.61,0.49-1.1,1.1-1.09l0.79,0
			c0.61,0,1.1,0.49,1.09,1.1l-0.36,187.95C591.7,425.4,591.21,425.89,590.6,425.89z"/>
		<path class="st14" d="M593.19,420.59l-7.15-0.41c-0.29-0.02-0.51-0.26-0.49-0.55l0.08-1.42c0.02-0.29,0.26-0.51,0.55-0.49
			l7.15,0.41c0.29,0.02,0.51,0.26,0.49,0.55l-0.08,1.42C593.73,420.39,593.48,420.61,593.19,420.59z"/>
		<path class="st14" d="M593.8,215.03l-0.35,22.38c-0.01,0.76-0.64,1.36-1.39,1.35l-2.47-0.04c-0.76-0.01-1.36-0.64-1.35-1.39
			l0.35-22.38c0.01-0.76,0.64-1.36,1.39-1.35l2.47,0.04C593.2,213.65,593.81,214.28,593.8,215.03z"/>
	</g>
	<path class="st8" d="M508.62,157.55l-28.54-5.5l0.06,25.08c0,0,8.46-0.24,24.42-10.32C504.56,166.81,507.77,161.99,508.62,157.55z"
		/>
	<circle class="st23" cx="479.54" cy="164.73" r="11.7"/>
	<circle class="st7" cx="479.54" cy="164.73" r="11.7"/>
	<path class="st24" d="M479.24,153.03c0,0-17.88,9.71-1.44,23.26c0,0-10.08-1.09-9.96-12.31
		C467.84,163.99,468.26,153.67,479.24,153.03z"/>
</g>
<g id="person2">
	<g>
		<g>
			<g>
				<path class="st13" d="M337.19,440.99l-0.3-0.17c-0.53-0.3-0.71-0.97-0.41-1.5l79.24-138.82c0.3-0.53,0.97-0.71,1.5-0.41
					l0.3,0.17c0.53,0.3,0.71,0.97,0.41,1.5l-79.24,138.82C338.39,441.11,337.72,441.29,337.19,440.99z"/>
				<path class="st14" d="M341.41,438.19l-4.99-3.23c-0.24-0.16-0.31-0.48-0.16-0.73l0.57-0.89c0.16-0.24,0.48-0.31,0.73-0.16
					l4.99,3.23c0.24,0.16,0.31,0.48,0.16,0.73l-0.57,0.89C341.98,438.28,341.66,438.35,341.41,438.19z"/>
				<path class="st14" d="M428.37,286.38l-9.48,16.08c-0.38,0.65-1.23,0.87-1.88,0.49l-1.46-0.86c-0.65-0.38-0.87-1.23-0.49-1.88
					l9.48-16.08c0.38-0.65,1.23-0.87,1.88-0.49l1.46,0.86C428.54,284.88,428.76,285.72,428.37,286.38z"/>
			</g>
			<g>
				<g>
					<g>
						<path class="st25" d="M314,436.07c0,0-7.74,2.73,4.86,8.4c0,0,7.75,14.02,14.58,6.78L314,436.07z"/>
						<path class="st25" d="M385.64,451.25c0,0-2.44,3.88,13.09,2.64c0,0,11.31,2.17,13.15-1.87L385.64,451.25z"/>
						<path class="st26" d="M319.4,430.15l7.38,3.06c0,0,2.35,11.73,4.86,14.76c2.51,3.03,3.06,5.3-2.7,3.28
							c-5.76-2.02-14.94-15.18-14.94-15.18L319.4,430.15z"/>
						<path class="st26" d="M386.9,441.49l7.38-0.73c0,0,11.37,8.03,14.41,8.7c3.05,0.67,6.71,4.7-3.67,3.41
							c-10.38-1.29-16.52-0.43-19.38-1.61C385.64,451.25,385.1,448.15,386.9,441.49z"/>
						<path class="st27" d="M328.4,403.33l13.5,7.41l-15.12,22.47c0,0-5.93,2.06-7.2-2.16C319.58,431.05,326.42,404.59,328.4,403.33
							z"/>
						<path class="st27" d="M376.46,420.79l12.06-3.24c0,0,3.06,15.63,5.76,23.21c0,0-2.89,3.37-7.38,0.73
							C386.9,441.49,377.9,427.63,376.46,420.79z"/>
					</g>
					<path class="st28" d="M388.52,307.57c0,0,6.84,34.56,0,67.14c0,0-2.12,36.89,0,42.84c0,0-7.02,5.4-12.06,3.24
						c0,0-12.54-23.54-7.97-52.09l1.24-55.78L388.52,307.57z"/>
					<path class="st29" d="M368.58,395.24l22.55-39.8c0,0-0.09,8.29-2.61,19.27c0,0-2.52,31.27,0,42.84c0,0-5.4,5.4-12.06,3.24
						C376.46,420.79,369.56,404.83,368.58,395.24z"/>
					<path class="st30" d="M337.04,312.18l12.42-9.47l23.22,11.7c0,0,5.4,51.84-14.58,74.34l-16.2,21.99c0,0-11.7-3.63-13.5-7.41
						c0,0,3.24-15.02,18.9-28.44C347.3,374.89,334.52,336.76,337.04,312.18z"/>
				</g>
				<g>
					<path class="st31" d="M341.24,279.88"/>
					<path class="st11" d="M347.33,224.22l-14.85,2.47l10,0.74c0,0,25.4,34.59,0.38,43.57l0.42-2.3l-0.8-41.26l-16.87-1.25
						c0,0-7.48,2.67-6.06,64.95c0,0-2.86,8.5,18.6,5.75l3.1-17c0,0,17.17-6.39,18.13-21.03
						C360.32,244.21,354.99,231.59,347.33,224.22z"/>
					<path class="st32" d="M397.52,255.01c0,0-11.01-31.79-20.51-31.14l10.25,42.1C387.27,265.97,394.88,263.41,397.52,255.01z"/>
					<path class="st33" d="M352.16,223.87c0,0-17.52-5.82-22.08,43.14c0,0,10.56,4.08,13.2,1.68l-6.96,38.16c0,0-1.68,5.13,4.8,5.33
						c6.48,0.19,8.64-10.13,8.64-10.13s-1.31,12,14.83,12s25.49,0.24,25.73-14.88c0.24-15.12-3.4-46.28-3.4-46.28l-6.34-23.09
						l-8.26-5.93H352.16z"/>
					<path class="st34" d="M343.28,268.69c0,0,3.11-25.27,9.95-7.86c0,0,4.85,18.48,0,28.2s-17.05,19.94-17.05,19.94L343.28,268.69z
						"/>
					<g>
						<g>
							<path class="st35" d="M361.63,209.1l-28.54-5.5l0.06,25.08c0,0,29-5.03,24.77-10.87
								C357.92,217.81,360.78,213.54,361.63,209.1z"/>
							<circle class="st36" cx="332.55" cy="216.29" r="11.7"/>
							<circle class="st37" cx="332.55" cy="216.29" r="11.7"/>
							<path class="st35" d="M332.25,204.59c0,0-17.88,9.71-1.44,23.26c0,0-10.08-1.09-9.96-12.31
								C320.85,215.55,321.27,205.23,332.25,204.59z"/>
						</g>
						<g>
							<path class="st38" d="M372.32,223.87c0,0,10.56,11.46,0,11.7s-16.4,0.55-20.16-11.7c0,0,8.16-2.7,5.76-16.62l13.2,10.8
								C371.12,218.05,371.36,225.14,372.32,223.87z"/>
							<g>
								<path class="st39" d="M379.28,198.13c0,0-1.71,19.79-13.2,14.16c-11.49-5.63-8.16-5.04-8.16-5.04l-0.45-17.91l15.81-0.45
									l4.56,2.28L379.28,198.13z"/>
								<path class="st18" d="M379.28,198.13c0,0,4.56-11.76-10.08-18.24c0,0-6.72-5.76-12.72-1.44c0,0-6.48-14.88-15.12-1.32
									c-8.64,13.56,7.2,11.76,7.2,11.76s-5.28,17.4,9.36,18.36v-7.45c0,0,3.84,0.97,7.44-2.63c0,0-0.72,5.04-4.08,6.24
									c0,0,5.52,0.48,12-14.52C373.28,188.89,376.16,189.25,379.28,198.13z"/>
							</g>
							<path class="st40" d="M371.12,218.05v-4.87c0,0-5.28,0.55-13.2-5.93C357.92,207.25,361.76,215.65,371.12,218.05z"/>
						</g>
					</g>
					<path class="st41" d="M372.32,223.87h4.69l10.25,17.05v13.12C387.27,254.05,379.76,228.02,372.32,223.87z"/>
					<path class="st42" d="M347.36,225.37c0,0,13.45,12.84,12.01,30.36c-1.45,17.52-13.21,22.3-18.13,24.54l1.53-8.65
						c0,0,14.73-2.05,10.84-24.52c0,0-5.76-17.16-12.36-20.11L347.36,225.37z"/>
					<polygon class="st42" points="338.12,270.85 342.76,271.62 345.23,274.09 341.24,280.27 337.49,280.27 					"/>
				</g>
			</g>
			<path class="st43" d="M426.47,295.48L426.47,295.48L426.47,295.48c-0.56-1.01-2.91-3.39-10.58-8.97c0,0-16.93-27.3-19.18-29.4
				c0,0-4.39,6.39-8.45,8.44c0,0,23.3,26.36,29.6,30.68c0,0,0.59-3.04,1.88-2.3c0.24,0.28,0.51,0.67,0.82,1.22
				c0,0-0.43,7.51,3.95,3.11l0,0c1.98-0.37,2.18-1.51,2.1-2.21C426.65,295.94,426.63,295.76,426.47,295.48z"/>
		</g>
		<g>
			<path class="st13" d="M232.42,403.95l-0.2-0.28c-0.35-0.49-0.24-1.18,0.26-1.53l130.25-92.65c0.49-0.35,1.18-0.24,1.53,0.26
				l0.2,0.28c0.35,0.49,0.24,1.18-0.26,1.53l-130.25,92.65C233.46,404.56,232.77,404.44,232.42,403.95z"/>
			<path class="st14" d="M237.43,403.19l-3.17-5.02c-0.16-0.25-0.08-0.57,0.16-0.72l0.89-0.56c0.25-0.15,0.57-0.08,0.72,0.16
				l3.17,5.02c0.16,0.25,0.08,0.57-0.16,0.72l-0.89,0.56C237.91,403.51,237.58,403.43,237.43,403.19z"/>
			<path class="st14" d="M380.15,301.99l-15.36,10.61c-0.62,0.43-1.48,0.27-1.91-0.35l-0.97-1.4c-0.43-0.62-0.27-1.48,0.35-1.91
				l15.36-10.61c0.62-0.43,1.48-0.27,1.91,0.35l0.97,1.4C380.93,300.7,380.77,301.56,380.15,301.99z"/>
		</g>
		<path class="st15" d="M330.56,267.79c0,0-6.3,13.86,2.34,19.44c8.64,5.58,31.14,16.92,31.14,16.92s1.44,7.92,8.46,4.86
			s-7.02-10.98-7.02-10.98s-20.7-17.22-24.66-18.15c0,0,3.42-6.87,2.88-11.01C343.7,268.87,333.44,269.95,330.56,267.79z"/>
	</g>
	<path class="st0" d="M369.08,206.95h5.58C374.66,206.95,372.5,211.27,369.08,206.95z"/>
</g>
<line class="st44" x1="790.16" y1="454.89" x2="37.52" y2="454.89"/>
</svg>
