<?xml version="1.0" encoding="utf-8"?>
<!-- Generator: Adobe Illustrator 25.0.1, SVG Export Plug-In . SVG Version: 6.00 Build 0)  -->
<svg version="1.1" id="money" xmlns="http://www.w3.org/2000/svg" xmlns:xlink="http://www.w3.org/1999/xlink" x="0px" y="0px"
	 viewBox="0 0 183 202" style="enable-background:new 0 0 183 202;" xml:space="preserve">
<style type="text/css">
	.st0{fill:#1E1E46;}
	.st1{fill:none;stroke:#FFFFFF;stroke-width:7;stroke-miterlimit:10;}
	.st2{fill:none;stroke:#FFFFFF;stroke-width:7.209;stroke-miterlimit:10;}
	.st3{fill:#FFFFFF;stroke:#FFFFFF;stroke-miterlimit:10;}
</style>
<rect class="st0" width="183" height="202"/>
<g>
	<path class="st1" d="M95.36,197.89c0,0,78.72,5.52,63.12-59.04s-36-75.36-51.12-89.52l-29.04,1.68c0,0-40.56,14.64-55.92,90.24
		C22.4,141.25,3.92,201.25,95.36,197.89z"/>
	<path class="st1" d="M57.2,15.29c0,0,12.48,17.52,39.12,3.6c0,0,11.04-6.48,28.56-3.6"/>
	<line class="st2" x1="91.18" y1="96.37" x2="91.5" y2="171.97"/>
	<g>
		<path class="st3" d="M79.45,145.7c1.4,6.14,5.8,8.84,12.88,8.84c7.06,0,10.08-2.79,10.08-7.27c0-4.98-2.95-7.14-13.41-9.57
			c-16.65-3.91-20.76-9.96-20.76-18.22c0-10.66,7.98-17.9,22.46-17.9c16.24,0,22.71,8.73,23.59,17.68h-13.33
			c-0.64-3.76-2.72-7.85-10.61-7.85c-5.37,0-8.61,2.22-8.61,6.56c0,4.25,2.6,5.98,12.48,8.27c17.79,4.19,21.69,10.81,21.69,19.44
			c0,11.17-8.45,18.83-24.62,18.83c-15.53,0-23.71-7.64-25.17-18.8H79.45z"/>
	</g>
	<path class="st1" d="M78.32,52.01l-19.2-32.6c0,0-8.4-9.4,18.24-8.2c0,0,17.28-2.75,23.52-6.48c0,0,15.36-2.16,20.88,6
		c5.52,8.16-14.4,39.6-14.4,39.6c-24.24,4.8-36.48,27.84-36.48,27.84"/>
</g>
</svg>
