<?xml version="1.0" encoding="utf-8"?>
<!-- Generator: Adobe Illustrator 25.0.1, SVG Export Plug-In . SVG Version: 6.00 Build 0)  -->
<svg version="1.1" id="Слой_1" xmlns="http://www.w3.org/2000/svg" xmlns:xlink="http://www.w3.org/1999/xlink" x="0px" y="0px"
	 viewBox="0 0 529.28 387.49" style="enable-background:new 0 0 529.28 387.49;" xml:space="preserve">
<style type="text/css">
	.st0{fill:#1E1E46;}
	.st1{fill:#EAE0FB;}
	.st2{fill:none;stroke:#EAE0FB;stroke-width:2;stroke-miterlimit:10;}
	.st3{fill:#4A1EAE;}
	.st4{fill:#857AD7;}
	.st5{fill:#2F2267;}
	.st6{fill:none;stroke:#000000;stroke-miterlimit:10;}
	.st7{fill:#6B72A5;}
	.st8{fill:#03105F;}
	.st9{fill:#132C75;}
	.st10{fill:none;stroke:#40377A;stroke-miterlimit:10;}
	.st11{fill:#F0A98D;}
	.st12{fill:#030F5E;}
	.st13{fill:#EDA58C;}
	.st14{fill:#EE8665;}
	.st15{fill:#FFCE72;}
	.st16{fill:none;stroke:#030F5E;stroke-miterlimit:10;}
	.st17{fill:#F08963;}
	.st18{fill:#25145A;}
	.st19{fill:#FFE388;}
	.st20{fill:#FED873;}
	.st21{fill:none;stroke:#FFE3A2;stroke-miterlimit:10;}
	.st22{fill:#EC8A6B;}
</style>
<rect class="st0" width="529.28" height="387.49"/>
<g id="фон_2_">
	<path class="st1" d="M417.84,160.63l-36.31-25.34c-26.88,10.08-118.5-38.66-118.5-38.66l0,0C201.77,52.24,132.89,43.05,97.36,78.57
		c-10.07,10.07-16.54,22.83-19.64,37.34l0,0c-18.7,41.59-6.41,105.56-6.41,105.56l0.01,0.01c4.16,25.74,17.97,52.88,40.56,75.47
		c20.66,20.66,45.11,33.98,68.83,39.29l0,0c38.61,15.65,112.69,8.41,112.69,8.41s0.01,0,0.01,0c7.29-0.67,14.23-2.08,20.74-4.28
		c19.61,1.13,41.15-1.97,62.55-9.86c46.4-17.1,78.73-51.71,84.46-85.93c0,0,0,0,0,0C472.62,199.79,417.84,160.63,417.84,160.63z"/>
	<path class="st1" d="M344.84,42.31c-34.05-7.02-64.76-2.61-75.63,9.66c-3.44-2.27-7.72-4.34-12.51-5.91
		c-13.6-4.47-26.2-3.29-28.15,2.62c-1.94,5.92,7.5,14.34,21.1,18.81c6.27,2.06,12.33,2.92,17.23,2.67
		c6.87,14.83,32.36,29.77,64.7,36.44c40.25,8.3,75.84,0.63,79.5-17.12C414.75,71.72,385.09,50.61,344.84,42.31z"/>
	<path class="st1" d="M65.31,221.87L65.31,221.87C65.31,221.87,65.31,221.87,65.31,221.87c-0.59-1.2-1.21-2.41-1.86-3.64
		c-7.45-17.52-3.92-51.55-3.92-51.55c4.03-17.16,2.79-32.13-2.76-33.43s-13.31,11.56-17.34,28.72c-0.73,3.13-1.29,6.18-1.68,9.1l0,0
		c-5.62,17.06,2.18,34.48,2.18,34.48l0,0c1.83,4.92,4.52,10.62,7.92,16.49c8.81,15.27,18.96,25.91,22.67,23.77
		C73.6,244.03,71.25,233.98,65.31,221.87z"/>
	<path class="st1" d="M503.66,235.92c0.05-0.2,0.09-0.4,0.14-0.6c0.81-3.66,3.46-16.7,1.4-22.43l0,0c-0.89-4.44-3.43-9.48-7.4-14.04
		c-7.87-9.03-18.38-12.76-23.47-8.32c-3.93,3.42-3.47,10.71,0.55,18l-0.01,0c0,0,0.01,0,0.02,0.01c0.65,1.19,1.4,2.37,2.24,3.54
		c1.15,2.95,2.42,8.29,2.99,17.88c0.01,1.03,0.06,2.04,0.15,3.03c0,0.06,0.01,0.12,0.01,0.18l0.01,0
		c0.91,9.56,5.43,16.82,11.19,17.06c5.31,0.22,10.08-5.61,12.11-13.94l0,0C503.57,236.29,503.6,236.16,503.66,235.92z"/>
	<path class="st2" d="M487.61,184.96c0,0,32.16,11.52,21.6,44.88"/>
	<path class="st2" d="M235.97,29.68c0,0,8.39,7.78,17.87,12.35"/>
	<path class="st2" d="M424.38,152.39c0,0,13.19,8.69,17.51,15.53"/>
	<path class="st2" d="M73.97,104.92c0,0,23.4-69.48,97.92-55.8"/>
	<path class="st2" d="M39.41,139.12c0,0-37.51,59.95,19.8,111.12"/>
	<path class="st2" d="M89.09,287.27c0,0,70.2,86.57,202.32,68.93"/>
</g>
<g id="_x3F_2_2_">
	<path class="st3" d="M219.72,112.51c0-13.89,4.46-27.96,13.38-42.21c8.92-14.25,21.93-26.06,39.03-35.41
		c17.1-9.35,37.06-14.03,59.86-14.03c21.2,0,39.91,3.91,56.14,11.73c16.23,7.82,28.76,18.46,37.61,31.91
		C434.57,77.94,439,92.55,439,108.34c0,12.43-2.52,23.32-7.57,32.67c-5.04,9.36-11.04,17.43-17.98,24.23
		c-6.95,6.8-19.41,18.24-37.39,34.32c-4.97,4.53-8.96,8.52-11.95,11.95c-3,3.44-5.23,6.58-6.69,9.43c-1.46,2.85-2.6,5.7-3.4,8.55
		c-0.81,2.85-2.01,7.86-3.62,15.02c-2.78,15.21-11.48,22.81-26.09,22.81c-7.6,0-14-2.48-19.19-7.46
		c-5.19-4.97-7.78-12.35-7.78-22.15c0-12.28,1.9-22.92,5.7-31.91c3.8-8.99,8.84-16.88,15.13-23.68c6.28-6.8,14.76-14.87,25.44-24.23
		c9.35-8.19,16.12-14.36,20.28-18.53c4.17-4.17,7.67-8.81,10.53-13.92c2.85-5.12,4.28-10.67,4.28-16.67
		c0-11.69-4.35-21.56-13.05-29.6c-8.7-8.04-19.92-12.06-33.66-12.06c-16.08,0-27.92,4.06-35.52,12.17
		c-7.6,8.11-14.03,20.06-19.3,35.85c-4.97,16.52-14.4,24.78-28.29,24.78c-8.19,0-15.1-2.88-20.72-8.66
		C222.53,125.48,219.72,119.23,219.72,112.51z M326.73,352.84c-8.92,0-16.7-2.89-23.35-8.66c-6.65-5.77-9.98-13.85-9.98-24.23
		c0-9.21,3.21-16.96,9.65-23.24c6.43-6.28,14.33-9.43,23.68-9.43c9.21,0,16.96,3.15,23.24,9.43c6.28,6.29,9.43,14.03,9.43,23.24
		c0,10.23-3.29,18.28-9.87,24.12C342.95,349.91,335.35,352.84,326.73,352.84z"/>
</g>
<g id="_x3F_">
	<g>
		<path class="st4" d="M214.44,111.51c0-13.89,4.46-27.96,13.38-42.21c8.92-14.25,21.93-26.06,39.03-35.41
			c17.1-9.35,37.06-14.03,59.86-14.03c21.2,0,39.91,3.91,56.14,11.73c16.23,7.82,28.76,18.46,37.61,31.91
			c8.84,13.45,13.27,28.07,13.27,43.86c0,12.43-2.52,23.32-7.57,32.67c-5.04,9.36-11.04,17.43-17.98,24.23
			c-6.95,6.8-19.41,18.24-37.39,34.32c-4.97,4.53-8.96,8.52-11.95,11.95c-3,3.44-5.23,6.58-6.69,9.43c-1.46,2.85-2.6,5.7-3.4,8.55
			c-0.81,2.85-2.01,7.86-3.62,15.02c-2.78,15.21-11.48,22.81-26.09,22.81c-7.6,0-14-2.48-19.19-7.46
			c-5.19-4.97-7.78-12.35-7.78-22.15c0-12.28,1.9-22.92,5.7-31.91c3.8-8.99,8.84-16.88,15.13-23.68
			c6.28-6.8,14.76-14.87,25.44-24.23c9.35-8.19,16.12-14.36,20.28-18.53c4.17-4.17,7.67-8.81,10.53-13.92
			c2.85-5.12,4.28-10.67,4.28-16.67c0-11.69-4.35-21.56-13.05-29.6c-8.7-8.04-19.92-12.06-33.66-12.06
			c-16.08,0-27.92,4.06-35.52,12.17c-7.6,8.11-14.03,20.06-19.3,35.85c-4.97,16.52-14.4,24.78-28.29,24.78
			c-8.19,0-15.1-2.88-20.72-8.66C217.25,124.48,214.44,118.23,214.44,111.51z M321.45,351.84c-8.92,0-16.7-2.89-23.35-8.66
			c-6.65-5.77-9.98-13.85-9.98-24.23c0-9.21,3.21-16.96,9.65-23.24c6.43-6.28,14.33-9.43,23.68-9.43c9.21,0,16.96,3.15,23.24,9.43
			c6.28,6.29,9.43,14.03,9.43,23.24c0,10.23-3.29,18.28-9.87,24.12C337.67,348.91,330.07,351.84,321.45,351.84z"/>
	</g>
</g>
<g id="people_2_">
	<path class="st5" d="M117.05,160.16V355.6c0,0,14.16,0.24,15.36-0.96c0,0,20.88-160.49,17.52-194.49H117.05z"/>
	<path class="st6" d="M168.65,154"/>
	<path class="st7" d="M118.49,367.36c0,0-0.96,6,2.4,5.28l12.78,0.06c0,0,4.62,1.72,2.58-5.34H118.49z"/>
	<path class="st8" d="M118.49,355.62v11.74c0,0,4.08,3.6,17.76,0c0,0,3.32-1.25-6.02-12.15L118.49,355.62z"/>
	<polygon class="st9" points="123.53,355.22 123.53,358.57 132.95,358.57 130.23,355.22 	"/>
	<path class="st10" d="M126.17,171.52c0,0-0.48,19.39-9.12,18.09"/>
	<path class="st11" d="M126.17,61.21c0,0,3-4.48,3.84-6.6l12.25,4.84l-2.47,6.13L126.17,61.21z"/>
	<path class="st12" d="M148.73,17.8c-15.25-9.61-20.58,16.25-20.58,16.25l2.03,1.04l-0.17,19.52c0,0,8.35,14.96,19.74,5.1
		c0.79,1.2,1.49,2.15,0.28-0.24c0.86-0.78,1.74-1.68,2.64-2.76l1.22-4.82l3.72-7.2l1.31,0.11l3.97-13.55
		C162.89,31.24,165.29,28.24,148.73,17.8z"/>
	<path class="st13" d="M131.94,44.68c0,0-5.77,3.2-6.25-5.72c-0.48-8.92,5.4-3.1,5.4-3.1s3.84-14.21,14.52-6.77
		c0,0,17.4,3.48,12.6,11.88l-0.6,3.72c0,0,3.72-0.96,0.36,4.56c0,0-2.64,3.6-4.08,2.64l-5.28,4.88l-15-5.12L131.94,44.68z"/>
	<path class="st14" d="M169.19,185.69c0,0,9.86-7.19,9.54-22.33l-4.77-4.56l-4.29,1.35h-1.8l0.46,7.52
		C168.33,167.67,160.85,171.54,169.19,185.69z"/>
	<path class="st15" d="M178.73,163.36c0,0-0.72-89.04-11.76-90l-2.16,70.72l4.86,16.07C169.67,160.16,176.33,161.68,178.73,163.36z"
		/>
	<path class="st12" d="M133.14,49.67c0,0,0.73,2.06,1.68,2.39c0,0,11.28-5.34,13.8,4.71l-2.17,0.86l-13.31-3.02V49.67z"/>
	<path class="st12" d="M130.18,35.09l-0.09,10.13l1.84-0.54c0,0-1.77-5.34,0.64-12.42L130.18,35.09z"/>
	<polygon class="st12" points="153.89,51.88 159.38,37.96 157.61,44.68 153.45,53.65 	"/>
	<polygon class="st12" points="130.1,46.6 130.1,45.22 130.11,43.9 131.94,44.68 132.58,47.35 	"/>
	<path class="st12" d="M152.89,52.81"/>
	<polygon class="st12" points="152.89,52.81 155.95,46.67 156.16,47.8 153.45,53.65 	"/>
	<path class="st16" d="M142.52,37.96c0,0-2.58-3.61-7.47-2.11"/>
	<path class="st16" d="M155.52,41.96c0,0-2.58-3.61-7.47-2.11"/>
	<path class="st17" d="M144.17,42.76c0,0-0.08,0.19-0.21,0.52c-0.65,1.64-2.46,6.64-0.48,6.88c2.37,0.28,0.61-7.2,0.61-7.2"/>
	<path class="st7" d="M141.29,364.72v-6.15l16.08-2.95l27.59,4.55c0,0,3.37,4.79-3.59,5.51c-6.96,0.72-23.52,1.68-23.52,1.68
		s-0.95-1.91-7.55-5.27v2.87C150.3,364.96,143.45,366.4,141.29,364.72z"/>
	<path class="st8" d="M141.29,353.21v5.36h9.01c0,0,11.39,5.67,22.19,4.95c0,0,19.68-1.85,9.6-5.13c0,0-14.02-0.48-23.57-6.56
		L141.29,353.21z"/>
	<polygon class="st9" points="163.13,354.24 159.98,356.05 154.64,352.15 158.52,351.84 	"/>
	<path class="st18" d="M167.69,157.6c0,0,5.04,68.88-0.96,85.2c0,0-7.2,79.44-6.96,107.04c0,0-1.2,7.43-20.16,2.99l9.12-192.68
		L167.69,157.6z"/>
	<path class="st19" d="M106.73,65.68c0,0,15.36-0.31,19.44-4.48c0,0,13.2,5.44,16.8,4.48l9.36,2.16c0,0,11.52,5.28,14.64,5.52
		c0,0,3.12,79.68,0.72,84.24l0.18,2.55c0,0-30.66,16.71-50.82,0C117.05,160.16,111.77,69.04,106.73,65.68z"/>
	<path class="st20" d="M121.61,101.44c0,0-0.48-38.16-14.88-35.76c-14.4,2.4-0.96,61.68-0.96,61.68s3.84,12.96,15.84,3.36
		c12-9.6,20.4-40.56,20.4-40.56l-11.04-7.44L121.61,101.44z"/>
	<line class="st21" x1="114.89" y1="115.12" x2="121.61" y2="101.44"/>
	<path class="st22" d="M142.01,90.16v-5.04c0,0,14.45-11.17,9.36-19.55c0,0,0.13-4.21-4.14-2.05c0,0,0.12-4.32,7.41-4.08
		c0,0,2.3-3.37-4.34-2.68c0,0-4.45,2.44-6.13,6.76c0,0,1.98-6.66,3.66-7.8c0,0,1.44-2.1-1.92-0.54c-3.36,1.56-4.86,7.5-4.86,7.5
		l-3.39,0.66c0,0,0.39-5.22-1.77-5.34c-2.16-0.12,0,19.68,0,19.68l-3.95,5.69L142.01,90.16z"/>
</g>
</svg>
