<?xml version="1.0" encoding="utf-8"?>
<!-- Generator: Adobe Illustrator 25.0.1, SVG Export Plug-In . SVG Version: 6.00 Build 0)  -->
<svg version="1.1" id="logo" xmlns="http://www.w3.org/2000/svg" xmlns:xlink="http://www.w3.org/1999/xlink" x="0px" y="0px"
	 viewBox="0 0 371.67 80.67" style="enable-background:new 0 0 371.67 80.67;" xml:space="preserve">
<style type="text/css">
	.st0{fill:#1E1E46;}
	.st1{fill:#FFFFFF;}
	.st2{fill:none;stroke:#FFFFFF;stroke-width:1.1852;stroke-miterlimit:10;}
	.st3{fill:#08C2F5;}
</style>
<rect class="st0" width="371.67" height="80.67"/>
<g>
	<path class="st1" d="M79.13,50.39c-1.46-0.79-2.58-1.95-3.35-3.47s-1.16-3.35-1.16-5.49v-3.79c0-2.11,0.39-3.92,1.16-5.42
		c0.77-1.5,1.89-2.65,3.35-3.44c1.46-0.79,3.23-1.18,5.28-1.18c2.06,0,3.82,0.39,5.28,1.18s2.58,1.93,3.35,3.44
		c0.77,1.5,1.15,3.31,1.15,5.42v3.86c0,2.12-0.39,3.94-1.15,5.44c-0.77,1.5-1.89,2.65-3.35,3.45c-1.46,0.79-3.23,1.19-5.28,1.19
		C82.35,51.58,80.59,51.18,79.13,50.39z M88.2,45.72c0.89-1,1.34-2.41,1.34-4.22v-3.86c0-1.81-0.45-3.21-1.34-4.2
		c-0.89-0.99-2.15-1.48-3.79-1.48s-2.89,0.49-3.79,1.48s-1.34,2.39-1.34,4.2v3.86c0,1.81,0.45,3.22,1.34,4.22
		c0.89,1,2.15,1.5,3.79,1.5S87.31,46.72,88.2,45.72z"/>
	<path class="st1" d="M97.86,27.94h18.44v4.13H97.86V27.94z M104.75,30.39h4.67v20.86h-4.67V30.39z"/>
	<path class="st1" d="M122.48,27.94h4.67v23.3h-4.67V27.94z M124.74,37.39h8.58v4.35h-8.58V37.39z M129.45,37.86l6.45-9.92h5.63
		l-9.95,13.94L129.45,37.86z M129.66,41.41l3.64-2.36l9.63,12.19h-6.25L129.66,41.41z"/>
	<path class="st1" d="M146.59,27.94h4.67v32.78h-4.67V27.94z M153.36,50.53c-1.1-0.7-1.91-1.68-2.42-2.95l0.32-4.87
		c0,1,0.18,1.86,0.55,2.56c0.37,0.7,0.9,1.24,1.59,1.62c0.69,0.37,1.54,0.56,2.53,0.56c1.54,0,2.73-0.46,3.58-1.38
		c0.85-0.92,1.27-2.22,1.27-3.9v-5.05c0-1.71-0.42-3.03-1.27-3.97c-0.85-0.94-2.04-1.41-3.58-1.41c-0.99,0-1.83,0.18-2.53,0.54
		c-0.69,0.36-1.22,0.89-1.59,1.58c-0.37,0.7-0.55,1.53-0.55,2.5l-0.48-4.49c0.72-1.36,1.65-2.41,2.81-3.15
		c1.16-0.74,2.45-1.11,3.87-1.11c1.68,0,3.11,0.37,4.31,1.11s2.11,1.82,2.73,3.24c0.62,1.42,0.94,3.14,0.94,5.14v5.07
		c0,1.98-0.32,3.67-0.96,5.07c-0.64,1.41-1.58,2.48-2.81,3.22c-1.24,0.74-2.71,1.11-4.44,1.11
		C155.75,51.58,154.46,51.23,153.36,50.53z"/>
	<path class="st1" d="M172.07,27.94h4.67v23.3h-4.67V27.94z M174.34,46.89h7.23c0.95,0,1.7-0.29,2.28-0.88
		c0.57-0.58,0.86-1.35,0.86-2.31c0-0.64-0.13-1.2-0.39-1.68s-0.63-0.85-1.1-1.12c-0.47-0.27-1.02-0.4-1.65-0.4h-7.23v-4.36h7.05
		c1.63,0,3.07,0.31,4.32,0.94c1.25,0.63,2.22,1.51,2.92,2.65c0.69,1.14,1.04,2.46,1.04,3.97c0,1.5-0.34,2.81-1.03,3.95
		c-0.69,1.14-1.65,2.02-2.91,2.65s-2.7,0.94-4.35,0.94h-7.05V46.89z M193.12,27.94h4.67v23.3h-4.67V27.94z"/>
	<path class="st1" d="M201.9,27.94h18.44v4.13H201.9V27.94z M208.79,30.39h4.67v20.86h-4.67V30.39z"/>
	<path class="st1" d="M241.43,51.22V34.67l0.55,0.58l-11.42,15.96h-4.05V27.94h4.62v16.93l-0.55-0.58l11.46-16.34h4v23.28H241.43z"
		/>
	<path class="st1" d="M257.47,50.37c-1.56-0.81-2.74-1.99-3.56-3.56c-0.82-1.56-1.22-3.45-1.22-5.67v-2.63c0-2.3,0.39-4.27,1.18-5.9
		c0.79-1.63,1.93-2.87,3.42-3.73s3.29-1.28,5.4-1.28c1.98,0,3.67,0.49,5.08,1.46c1.4,0.97,2.47,2.38,3.21,4.22s1.11,4.05,1.11,6.62
		v1.53h-16.01v-3.68h11.58c-0.14-1.9-0.64-3.38-1.5-4.43c-0.86-1.06-2.02-1.58-3.47-1.58c-1.77,0-3.14,0.57-4.11,1.71
		c-0.97,1.14-1.45,2.75-1.45,4.83v2.96c0,1.93,0.52,3.41,1.56,4.44s2.51,1.55,4.42,1.55c0.95,0,1.88-0.19,2.81-0.56
		s1.76-0.9,2.49-1.57l3.07,3.01c-1.17,1.11-2.49,1.96-3.96,2.57c-1.46,0.61-2.94,0.91-4.42,0.91
		C260.9,51.58,259.02,51.17,257.47,50.37z"/>
</g>
<g>
	<path class="st1" d="M305.07,34.12h1.61v11.52h-1.61V34.12z M305.85,34.12h6.26v1.54h-6.26V34.12z M305.89,44.1h3.66
		c0.37,0,0.68-0.07,0.94-0.22c0.26-0.15,0.46-0.36,0.59-0.65s0.21-0.63,0.21-1.03c0-0.41-0.07-0.75-0.21-1.04s-0.33-0.5-0.59-0.65
		c-0.26-0.15-0.57-0.23-0.94-0.23h-3.66v-1.54h3.61c0.72,0,1.34,0.13,1.86,0.4c0.51,0.27,0.91,0.66,1.18,1.18
		c0.27,0.52,0.41,1.14,0.41,1.87c0,0.72-0.14,1.34-0.41,1.86s-0.66,0.91-1.18,1.18c-0.51,0.27-1.13,0.4-1.86,0.4h-3.61V44.1z"/>
	<path class="st1" d="M315.55,45.13c-0.5-0.42-0.75-1.06-0.75-1.91c0-0.81,0.23-1.42,0.69-1.83s1.15-0.61,2.07-0.61h2.32l0.11,1.3
		h-2.43c-0.42,0-0.73,0.09-0.94,0.28c-0.21,0.19-0.31,0.47-0.31,0.86c0,0.42,0.14,0.73,0.41,0.93c0.28,0.2,0.69,0.3,1.26,0.3
		c0.61,0,1.07-0.07,1.38-0.2c0.3-0.13,0.45-0.34,0.45-0.62l0.17,1.16c-0.14,0.22-0.32,0.4-0.52,0.55c-0.21,0.14-0.45,0.25-0.72,0.32
		s-0.58,0.11-0.92,0.11C316.8,45.76,316.04,45.55,315.55,45.13z M319.81,40.43c0-0.54-0.14-0.96-0.43-1.26s-0.69-0.45-1.22-0.45
		c-0.33,0-0.64,0.05-0.96,0.15c-0.31,0.1-0.59,0.24-0.83,0.42l-1.17-0.81c0.31-0.37,0.72-0.67,1.22-0.88s1.07-0.31,1.69-0.31
		c0.68,0,1.26,0.12,1.74,0.36s0.85,0.59,1.1,1.05c0.25,0.46,0.38,1.01,0.38,1.65v5.28h-1.53V40.43z"/>
	<path class="st1" d="M323.78,37.42h1.61v8.22h-1.61V37.42z M324.78,40.87h5.02v1.46h-5.02V40.87z M328.95,37.42h1.61v8.22h-1.61
		V37.42z"/>
	<path class="st1" d="M333.08,37.42h1.61v8.22h-1.61V37.42z M333.86,40.75h2.95v1.54h-2.95V40.75z M335.48,40.92l2.22-3.5h1.94
		l-3.43,4.92L335.48,40.92z M335.55,42.17l1.25-0.83l3.32,4.3h-2.15L335.55,42.17z"/>
</g>
<line class="st2" x1="288.07" y1="15.04" x2="288.07" y2="66.52"/>
<path class="st3" d="M33.64,14.47C19.42,14.47,7.9,26,7.9,40.22c0,14.22,11.52,25.74,25.74,25.74c14.22,0,25.74-11.52,25.74-25.74
	C59.38,26,47.86,14.47,33.64,14.47z M22.83,40.22c0.85,7.39,3.7,8.26,7.4,11.03l-1.99,5.33c0,0-11.38-3.97-11.52-16.35
	c0,0,0.43-13.23,11.8-16.64l1.71,5.55C30.23,29.12,21.98,32.82,22.83,40.22z M40.04,56.71l-1.99-5.33c3.7-2.77,6.54-3.63,7.4-11.03
	c0.85-7.39-7.4-11.1-7.4-11.1l1.71-5.55c11.38,3.41,11.8,16.64,11.8,16.64C51.42,52.74,40.04,56.71,40.04,56.71z"/>
</svg>
