<?xml version="1.0" encoding="utf-8"?>
<!-- Generator: Adobe Illustrator 25.0.1, SVG Export Plug-In . SVG Version: 6.00 Build 0)  -->
<svg version="1.1" id="Слой_1" xmlns="http://www.w3.org/2000/svg" xmlns:xlink="http://www.w3.org/1999/xlink" x="0px" y="0px"
	 viewBox="0 0 43.28 43.33" style="enable-background:new 0 0 43.28 43.33;" xml:space="preserve">
<style type="text/css">
	.st0{fill:#333944;}
	.st1{fill:#FFFFFF;}
</style>
<rect y="0.49" class="st0" width="43.28" height="43.28"/>
<path class="st1" d="M21.86,0.49c-11.83,0-21.42,9.59-21.42,21.42s9.59,21.42,21.42,21.42c11.83,0,21.42-9.59,21.42-21.42
	S33.69,0.49,21.86,0.49z M32.36,14.34l-0.14,1.08L32.2,15.4l-2.45,15.46l-0.39,1.06c-0.03,0.14-0.08,0.28-0.15,0.4l-0.01,0.02l0,0
	c-0.21,0.35-0.6,0.59-1.04,0.59c-0.11,0-0.21-0.02-0.31-0.04l0,0l-0.01-0.01c-0.17-0.05-0.32-0.13-0.46-0.24l-1.37-0.72l-5.67-3.91
	l0,0l-0.68-0.47l0,0l-0.47-0.33c-0.02-0.01-0.05-0.03-0.07-0.05l-0.04-0.03l0-0.01c-0.28-0.22-0.46-0.56-0.46-0.94
	c0-0.23,0.07-0.44,0.18-0.63l0,0l0,0c0.09-0.15,0.21-0.28,0.36-0.38l0.19-0.2l6.5-6.35l-8.04,5.01l-1.63,1.27
	c-0.08,0.09-0.18,0.16-0.28,0.22l-0.01,0l-0.01,0c-0.18,0.1-0.38,0.16-0.59,0.16c-0.24,0-0.47-0.07-0.66-0.2l-0.43-0.13l-4.77-1.36
	c-0.1-0.02-0.19-0.04-0.28-0.08l0,0l0,0c-0.43-0.19-0.73-0.62-0.73-1.12c0-0.4,0.2-0.75,0.49-0.97l0,0l0,0
	c0.2-0.15,0.45-0.24,0.72-0.24c0.02,0,0.05,0.01,0.07,0.01l0.56-0.17l19.46-7.71l0.67-0.24c0.21-0.17,0.47-0.28,0.77-0.28
	c0.67,0,1.22,0.54,1.22,1.22C32.4,14.13,32.38,14.23,32.36,14.34L32.36,14.34z"/>
</svg>
