<?xml version="1.0" encoding="utf-8"?>
<!-- Generator: Adobe Illustrator 25.0.1, SVG Export Plug-In . SVG Version: 6.00 Build 0)  -->
<svg version="1.1" id="Слой_1" xmlns="http://www.w3.org/2000/svg" xmlns:xlink="http://www.w3.org/1999/xlink" x="0px" y="0px"
	 viewBox="0 0 43.52 42.71" style="enable-background:new 0 0 43.52 42.71;" xml:space="preserve">
<style type="text/css">
	.st0{fill:#333944;}
	.st1{fill:#FFFFFF;}
</style>
<rect y="0.22" class="st0" width="43.52" height="42.49"/>
<path class="st1" d="M34.28,0.22H9.92c-5.1,0-9.24,4.14-9.24,9.24v24.36c0,5.1,4.14,9.24,9.24,9.24h24.36c5.1,0,9.24-4.14,9.24-9.24
	V9.46C43.52,4.36,39.38,0.22,34.28,0.22z M37.23,30.26h-6.09c0,0-1.49-5.24-6.89-6.07v6.07c0,0-17.34,1.68-17.34-17.28h5.17
	c0,0,0.32,10.23,6.11,11.43c0.21,0.04,0.44,0.08,0.67,0.1V12.98h5.4v6.6c0,0,4.13-1.36,6.66-6.6h5.28c0,0,0.11,4.4-5.74,8.69
	C30.45,21.67,38.03,26.91,37.23,30.26z"/>
</svg>
