<?xml version="1.0" encoding="utf-8"?>
<!-- Generator: Adobe Illustrator 25.0.1, SVG Export Plug-In . SVG Version: 6.00 Build 0)  -->
<svg version="1.1" id="Слой_1" xmlns="http://www.w3.org/2000/svg" xmlns:xlink="http://www.w3.org/1999/xlink" x="0px" y="0px"
	 viewBox="0 0 43.44 42.84" style="enable-background:new 0 0 43.44 42.84;" xml:space="preserve">
<style type="text/css">
	.st0{fill:#333944;}
	.st1{fill:#FFFFFF;}
	.st2{fill:#FFFFFF;stroke:#333944;stroke-width:3;stroke-miterlimit:10;}
	.st3{stroke:#333944;stroke-width:3;stroke-miterlimit:10;}
</style>
<rect class="st0" width="43.44" height="42.84"/>
<g>
	<path class="st1" d="M36.12,42.84H7.92c-4.04,0-7.32-3.28-7.32-7.32V7.32C0.6,3.28,3.88,0,7.92,0h28.2c4.04,0,7.32,3.28,7.32,7.32
		v28.2C43.44,39.56,40.16,42.84,36.12,42.84z"/>
	<circle class="st2" cx="22.02" cy="20.53" r="13.87"/>
	<polyline class="st3" points="10.01,27.46 8.15,34.39 15.13,32.56 	"/>
	<path class="st1" d="M14.43,28.93l-2.61-2.83c0,0-1.17,4.95-1.17,5.14l-0.4,1.34l1.57-0.32l5.22-1.03L14.43,28.93z"/>
	<path class="st0" d="M26.68,21.7c-1.59-0.79-2.56,1.35-2.56,1.35c-0.14,0.21-0.33,0.29-0.53,0.3c-0.88-0.38-3.19-1.52-4.42-3.6
		c0,0-0.87-1.18-0.1-1.65c0,0,2.17-0.91,1.43-2.52c0,0-0.79-3.62-2.8-2.93l-2.43,0.58c0,0-1.69-0.23-0.32,4.43
		c0,0,1.43,6.22,7.87,8.9c0.96,0.45,1.61,0.62,1.61,0.62C29.06,28.7,28.87,27,28.87,27l0.65-2.42C30.27,22.6,26.68,21.7,26.68,21.7z
		"/>
</g>
</svg>
